<svg width="16" height="16" viewBox="0 0 16 16" fill="none" xmlns="http://www.w3.org/2000/svg">
<path d="M3 16C2.45 16 1.97934 15.8261 1.588 15.4782C1.19667 15.1304 1.00067 14.7117 1 14.2222V2.66667C0.71667 2.66667 0.479337 2.58133 0.288003 2.41067C0.0966702 2.24 0.000670115 2.02904 3.44827e-06 1.77778C-0.000663218 1.52652 0.0953369 1.31556 0.288003 1.14489C0.48067 0.974222 0.718003 0.888889 1 0.888889H5C5 0.637037 5.096 0.426074 5.288 0.256C5.48 0.085926 5.71733 0.000592593 6 0H10C10.2833 0 10.521 0.0853334 10.713 0.256C10.905 0.426667 11.0007 0.63763 11 0.888889H15C15.2833 0.888889 15.521 0.974222 15.713 1.14489C15.905 1.31556 16.0007 1.52652 16 1.77778C15.9993 2.02904 15.9033 2.2403 15.712 2.41156C15.5207 2.58281 15.2833 2.66785 15 2.66667V14.2222C15 14.7111 14.8043 15.1298 14.413 15.4782C14.0217 15.8267 13.5507 16.0006 13 16H3ZM6 12.4444C6.28333 12.4444 6.521 12.3591 6.713 12.1884C6.905 12.0178 7.00067 11.8068 7 11.5556V5.33333C7 5.08148 6.904 4.87052 6.712 4.70044C6.52 4.53037 6.28267 4.44504 6 4.44444C5.71733 4.44385 5.48 4.52918 5.288 4.70044C5.096 4.8717 5 5.08267 5 5.33333V11.5556C5 11.8074 5.096 12.0187 5.288 12.1893C5.48 12.36 5.71733 12.445 6 12.4444ZM10 12.4444C10.2833 12.4444 10.521 12.3591 10.713 12.1884C10.905 12.0178 11.0007 11.8068 11 11.5556V5.33333C11 5.08148 10.904 4.87052 10.712 4.70044C10.52 4.53037 10.2827 4.44504 10 4.44444C9.71733 4.44385 9.48 4.52918 9.288 4.70044C9.096 4.8717 9 5.08267 9 5.33333V11.5556C9 11.8074 9.096 12.0187 9.288 12.1893C9.48 12.36 9.71733 12.445 10 12.4444Z" fill="#CDD6F4"/>
</svg>
