<svg width="16" height="16" viewBox="0 0 16 16" fill="none" xmlns="http://www.w3.org/2000/svg">
<path d="M1.6 16C1.16 16 0.783467 15.8043 0.4704 15.413C0.157333 15.0217 0.000533333 14.5507 0 14V2C0 1.45 0.1568 0.979333 0.4704 0.588C0.784 0.196666 1.16053 0.000666667 1.6 0H14.4C14.84 0 15.2168 0.196 15.5304 0.588C15.844 0.98 16.0005 1.45067 16 2V14C16 14.55 15.8435 15.021 15.5304 15.413C15.2173 15.805 14.8405 16.0007 14.4 16H1.6ZM1.6 14H14.4V2H1.6V14ZM3.2 13H12.8C13.0267 13 13.2168 12.904 13.3704 12.712C13.524 12.52 13.6005 12.2827 13.6 12C13.5995 11.7173 13.5227 11.48 13.3696 11.288C13.2165 11.096 13.0267 11 12.8 11H3.2C2.97333 11 2.78347 11.096 2.6304 11.288C2.47733 11.48 2.40053 11.7173 2.4 12C2.39947 12.2827 2.47627 12.5203 2.6304 12.713C2.78453 12.9057 2.9744 13.0013 3.2 13ZM3.2 9H12.8C13.0267 9 13.2168 8.904 13.3704 8.712C13.524 8.52 13.6005 8.28267 13.6 8C13.5995 7.71733 13.5227 7.48 13.3696 7.288C13.2165 7.096 13.0267 7 12.8 7H3.2C2.97333 7 2.78347 7.096 2.6304 7.288C2.47733 7.48 2.40053 7.71733 2.4 8C2.39947 8.28267 2.47627 8.52033 2.6304 8.713C2.78453 8.90567 2.9744 9.00133 3.2 9ZM3.2 5H9.6C9.82667 5 10.0168 4.904 10.1704 4.712C10.324 4.52 10.4005 4.28267 10.4 4C10.3995 3.71733 10.3227 3.48 10.1696 3.288C10.0165 3.096 9.82667 3 9.6 3H3.2C2.97333 3 2.78347 3.096 2.6304 3.288C2.47733 3.48 2.40053 3.71733 2.4 4C2.39947 4.28267 2.47627 4.52033 2.6304 4.713C2.78453 4.90567 2.9744 5.00133 3.2 5Z" fill="#CDD6F4"/>
</svg>
